<?xml version="1.0" standalone="no"?>
<!DOCTYPE svg PUBLIC "-//W3C//DTD SVG 20010904//EN"
 "http://www.w3.org/TR/2001/REC-SVG-20010904/DTD/svg10.dtd">
<svg version="1.0" xmlns="http://www.w3.org/2000/svg"
 width="512.000000pt" height="512.000000pt" viewBox="0 0 512.000000 512.000000"
 preserveAspectRatio="xMidYMid meet">
<metadata>
Created by potrace 1.11, written by Peter Selinger 2001-2013
</metadata>
<g transform="translate(0.000000,512.000000) scale(0.100000,-0.100000)"
fill="#000000" stroke="none">
<path d="M1925 5023 c-154 -34 -265 -97 -359 -205 -88 -100 -151 -261 -156
-395 0 -7 -16 -11 -42 -10 l-43 1 0 -126 c0 -70 -3 -129 -6 -132 -3 -3 -194
-6 -425 -6 -461 -1 -493 -4 -605 -60 -81 -41 -188 -148 -228 -227 -65 -130
-62 -32 -59 -1775 l3 -1583 29 -70 c16 -38 38 -83 49 -100 83 -122 203 -205
336 -234 74 -16 4208 -16 4282 0 190 41 350 193 399 380 18 71 19 127 19 1634
1 1708 4 1621 -58 1743 -39 77 -108 152 -189 205 -126 82 -118 81 -627 85
l-451 3 1 129 c1 83 -3 130 -10 131 -5 1 -25 1 -42 0 -21 -1 -33 3 -34 11 -16
290 -201 521 -474 592 -51 13 -148 15 -675 15 -338 -1 -624 -3 -635 -6z m1245
-359 c90 -27 180 -137 180 -220 0 -27 -3 -31 -27 -32 -62 0 -58 9 -57 -132 l1
-130 -707 0 -707 0 1 130 c1 82 -2 131 -9 131 -5 1 -25 1 -44 0 l-34 -2 6 50
c11 89 87 178 177 205 66 20 1154 20 1220 0z"/>
</g>
</svg>
